# xmcd
#
# Track frame offsets:
#	150
#	15799
#	33505
#	49422
#	69549
#	87125
#	102039
#	115799
#	131647
#	149826
#	167707
#	181809
#
# Disc length: 2688 seconds
#
# Revision: 1
# Processed by: cddbd v1.4PL0 Copyright (c) Steve Scherf et al.
# Submitted via: audiograbber 1.81.02
#
DISCID=9d0a7e0c
DTITLE=Rhett Akins - Friday Night In Dixie
DYEAR=2001
DGENRE=Country
TTITLE0=Friday Night In Dixie
TTITLE1=White Lies And Blue Eyes
TTITLE2=Trouble With A Women
TTITLE3=Livin' Not Lovin' You
TTITLE4=She Was
TTITLE5=That Girl
TTITLE6=You Rock Me
TTITLE7=Righ Back Atcha
TTITLE8=I wonder What You're Doin' Tonight
TTITLE9=Must Be Livin' Right
TTITLE10=Where The Blacktop Ends
TTITLE11=Hind Legs
EXTD=
EXTT0=
EXTT1=
EXTT2=
EXTT3=
EXTT4=
EXTT5=
EXTT6=
EXTT7=
EXTT8=
EXTT9=
EXTT10=
EXTT11=
PLAYORDER=
